<svg id="svg" version="1.1" xmlns="http://www.w3.org/2000/svg" xmlns:xlink="http://www.w3.org/1999/xlink" width="400" height="400" viewBox="0, 0, 400,400"><g id="svgg"><path id="path0" d="M287.400 99.060 C 285.635 99.347,282.896 100.306,280.400 101.512 C 277.295 103.011,276.540 103.746,213.166 167.028 C 189.938 190.223,170.655 209.200,170.315 209.200 C 169.976 209.200,159.101 198.523,146.149 185.472 C 117.752 156.860,118.199 157.179,107.200 157.724 C 98.807 158.140,97.232 159.134,83.662 172.570 C 69.090 186.999,67.257 189.910,67.214 198.694 C 67.170 207.729,68.397 209.613,85.775 227.189 C 132.463 274.409,157.001 298.641,159.200 299.700 C 167.200 303.554,176.463 303.195,183.000 298.778 C 186.052 296.715,327.857 154.734,329.363 152.233 C 330.647 150.101,331.360 148.206,332.386 144.200 C 333.531 139.727,332.253 132.679,329.401 127.736 C 328.162 125.588,309.015 106.025,305.791 103.612 C 300.756 99.845,293.549 98.061,287.400 99.060 " stroke="none" fill="#fbfbfb" fill-rule="evenodd"></path><path id="path1" d="M179.400 0.264 C 177.640 0.344,175.840 0.579,175.400 0.786 C 174.960 0.994,173.610 1.237,172.400 1.325 C 171.190 1.414,169.750 1.600,169.201 1.739 C 168.651 1.879,167.353 2.022,166.316 2.059 C 165.279 2.096,164.514 2.260,164.615 2.424 C 164.716 2.588,163.945 2.823,162.900 2.946 C 159.022 3.401,157.389 3.699,156.985 4.023 C 156.757 4.207,155.739 4.411,154.724 4.478 C 153.708 4.545,152.960 4.735,153.062 4.900 C 153.164 5.065,152.707 5.200,152.047 5.200 C 151.387 5.200,150.736 5.380,150.600 5.600 C 150.464 5.820,149.881 6.000,149.305 6.000 C 148.234 6.000,145.951 6.620,144.705 7.249 C 144.323 7.442,143.558 7.600,143.005 7.600 C 142.452 7.600,142.000 7.780,142.000 8.000 C 142.000 8.220,141.471 8.400,140.824 8.400 C 140.177 8.400,139.536 8.580,139.400 8.800 C 139.264 9.020,138.623 9.200,137.976 9.200 C 137.329 9.200,136.800 9.380,136.800 9.600 C 136.800 9.820,136.181 10.000,135.424 10.000 C 134.667 10.000,133.928 10.192,133.783 10.427 C 133.638 10.662,133.267 10.758,132.960 10.640 C 132.652 10.522,132.400 10.599,132.400 10.813 C 132.400 11.026,132.051 11.200,131.624 11.200 C 131.197 11.200,130.734 11.383,130.596 11.607 C 130.458 11.830,130.177 11.909,129.972 11.783 C 129.768 11.656,129.600 11.754,129.600 12.000 C 129.600 12.246,129.419 12.335,129.198 12.199 C 128.977 12.062,128.122 12.304,127.298 12.736 C 125.224 13.822,122.902 14.826,122.085 14.988 C 120.582 15.287,120.192 15.410,120.000 15.647 C 119.680 16.043,116.298 17.600,115.758 17.600 C 115.488 17.600,115.207 17.735,115.133 17.900 C 114.941 18.332,111.293 20.133,110.610 20.133 C 110.294 20.133,110.108 20.251,110.196 20.394 C 110.374 20.682,107.596 21.817,107.070 21.671 C 106.889 21.621,106.855 21.765,106.994 21.990 C 107.136 22.221,106.877 22.400,106.400 22.400 C 105.934 22.400,105.664 22.580,105.800 22.800 C 105.941 23.028,105.596 23.200,105.000 23.200 C 104.424 23.200,104.040 23.342,104.148 23.515 C 104.255 23.688,103.770 24.079,103.071 24.383 C 102.372 24.687,101.710 25.040,101.600 25.168 C 101.175 25.661,99.579 26.400,98.939 26.400 C 98.569 26.400,98.384 26.517,98.527 26.661 C 98.872 27.006,96.820 28.060,96.358 27.774 C 96.161 27.652,96.000 27.833,96.000 28.176 C 96.000 28.533,95.658 28.800,95.200 28.800 C 94.760 28.800,94.400 28.950,94.400 29.132 C 94.400 29.315,93.905 29.720,93.300 30.032 C 92.695 30.345,91.962 30.825,91.671 31.100 C 91.381 31.375,90.875 31.600,90.548 31.600 C 90.221 31.600,90.040 31.742,90.148 31.915 C 90.255 32.088,89.770 32.483,89.071 32.793 C 88.372 33.102,87.451 33.680,87.025 34.078 C 86.598 34.475,86.019 34.800,85.739 34.800 C 85.458 34.800,85.035 35.160,84.800 35.600 C 84.565 36.040,84.185 36.400,83.957 36.400 C 83.729 36.400,83.271 36.672,82.939 37.004 C 82.607 37.336,82.142 37.488,81.906 37.342 C 81.670 37.196,81.583 37.250,81.714 37.461 C 81.941 37.828,80.428 39.250,79.990 39.081 C 79.875 39.036,79.132 39.667,78.340 40.483 C 77.548 41.299,76.821 41.887,76.725 41.791 C 76.628 41.695,75.924 42.198,75.160 42.908 C 72.942 44.970,72.174 45.532,72.576 44.800 C 72.758 44.470,72.376 44.740,71.729 45.400 C 69.075 48.105,66.351 50.400,65.793 50.400 C 65.467 50.400,65.245 50.558,65.300 50.751 C 65.431 51.211,62.946 53.600,62.337 53.600 C 62.078 53.600,61.978 53.711,62.114 53.848 C 62.424 54.158,61.415 55.200,60.805 55.200 C 60.556 55.200,60.426 55.335,60.516 55.500 C 60.730 55.896,54.142 62.408,53.836 62.103 C 53.706 61.973,53.600 62.078,53.600 62.337 C 53.600 62.969,51.202 65.429,50.722 65.290 C 50.512 65.230,50.443 65.346,50.569 65.549 C 50.694 65.753,50.303 66.449,49.698 67.097 C 47.274 69.699,45.600 71.722,45.600 72.052 C 45.600 72.243,45.330 72.400,45.000 72.400 C 44.670 72.400,44.400 72.688,44.400 73.040 C 44.400 73.391,43.869 74.175,43.219 74.782 C 42.570 75.389,41.985 76.133,41.919 76.436 C 41.854 76.738,41.258 77.529,40.596 78.193 C 39.933 78.857,39.364 79.547,39.332 79.727 C 39.191 80.496,37.810 81.932,37.423 81.712 C 37.190 81.580,37.130 81.616,37.289 81.792 C 37.607 82.144,36.417 84.400,35.914 84.400 C 35.741 84.400,35.600 84.578,35.600 84.795 C 35.600 85.147,35.064 85.906,33.800 87.345 C 33.580 87.595,33.148 88.289,32.840 88.886 C 32.532 89.484,32.099 89.861,31.878 89.725 C 31.657 89.588,31.577 89.639,31.699 89.838 C 31.821 90.037,31.491 90.920,30.964 91.800 C 30.437 92.680,29.701 93.985,29.329 94.700 C 28.957 95.415,28.405 96.000,28.102 96.000 C 27.800 96.000,27.660 96.173,27.790 96.384 C 27.996 96.718,27.380 98.221,26.799 98.800 C 26.689 98.910,26.344 99.495,26.032 100.100 C 25.720 100.705,25.315 101.200,25.132 101.200 C 24.950 101.200,24.800 101.449,24.800 101.754 C 24.800 102.584,23.760 104.427,23.461 104.127 C 23.241 103.908,23.164 104.301,23.208 105.408 C 23.213 105.522,22.880 105.977,22.469 106.418 C 22.058 106.860,21.487 107.930,21.201 108.797 C 20.915 109.664,20.565 110.302,20.423 110.214 C 20.282 110.127,20.138 110.423,20.105 110.872 C 20.071 111.322,19.776 111.984,19.450 112.345 C 19.124 112.705,18.856 113.090,18.854 113.200 C 18.848 113.684,18.214 115.081,17.585 116.000 C 17.208 116.550,16.770 117.597,16.612 118.327 C 16.454 119.057,16.102 119.740,15.829 119.844 C 15.556 119.949,15.314 120.252,15.290 120.517 C 15.216 121.350,14.963 122.149,14.271 123.749 C 13.902 124.601,13.600 125.445,13.600 125.626 C 13.600 125.807,13.245 126.556,12.810 127.293 C 12.376 128.029,11.961 129.024,11.887 129.505 C 11.814 129.986,11.629 130.504,11.477 130.656 C 11.325 130.809,11.200 131.263,11.200 131.667 C 11.200 132.070,11.037 132.400,10.837 132.400 C 10.638 132.400,10.569 132.760,10.684 133.200 C 10.801 133.647,10.696 134.000,10.447 134.000 C 10.201 134.000,10.000 134.630,10.000 135.400 C 10.000 136.170,9.820 136.800,9.600 136.800 C 9.380 136.800,9.200 137.304,9.200 137.920 C 9.200 138.536,9.021 139.219,8.802 139.438 C 8.584 139.656,8.364 140.322,8.315 140.918 C 8.266 141.513,8.085 142.000,7.913 142.000 C 7.741 142.000,7.600 142.529,7.600 143.176 C 7.600 143.823,7.420 144.464,7.200 144.600 C 6.980 144.736,6.800 145.287,6.800 145.824 C 6.800 146.361,6.639 146.800,6.442 146.800 C 6.245 146.800,5.975 147.520,5.842 148.400 C 5.709 149.280,5.491 150.719,5.358 151.598 C 5.225 152.477,5.000 153.124,4.858 153.036 C 4.716 152.949,4.545 153.715,4.478 154.738 C 4.411 155.762,4.186 156.771,3.978 156.980 C 3.770 157.189,3.600 158.033,3.600 158.856 C 3.600 159.679,3.420 160.464,3.200 160.600 C 2.980 160.736,2.800 161.521,2.800 162.344 C 2.800 163.167,2.575 164.082,2.300 164.379 C 1.894 164.816,1.912 164.858,2.400 164.600 C 2.888 164.342,2.906 164.384,2.500 164.821 C 2.225 165.118,2.000 166.224,2.000 167.280 C 2.000 168.336,1.840 169.200,1.644 169.200 C 1.449 169.200,1.297 169.425,1.307 169.700 C 1.394 172.020,1.138 175.209,0.879 175.049 C 0.027 174.523,-0.143 223.617,0.707 224.467 C 0.992 224.752,1.200 226.013,1.200 227.456 C 1.200 228.829,1.380 230.064,1.600 230.200 C 1.820 230.336,2.000 231.416,2.000 232.600 C 2.000 233.784,2.146 234.843,2.324 234.953 C 2.502 235.063,2.692 236.019,2.746 237.077 C 2.799 238.134,3.013 239.060,3.221 239.133 C 3.430 239.207,3.600 240.051,3.600 241.010 C 3.600 241.968,3.780 242.864,4.000 243.000 C 4.220 243.136,4.400 243.942,4.400 244.790 C 4.400 245.639,4.570 246.393,4.779 246.467 C 4.987 246.540,5.200 247.445,5.252 248.478 C 5.304 249.511,5.494 250.265,5.674 250.155 C 5.853 250.044,6.000 250.473,6.000 251.110 C 6.000 251.746,6.127 252.393,6.282 252.548 C 6.437 252.703,6.628 253.318,6.706 253.915 C 6.785 254.512,7.018 255.171,7.225 255.380 C 7.431 255.589,7.600 256.264,7.600 256.880 C 7.600 257.496,7.780 258.000,8.000 258.000 C 8.220 258.000,8.400 258.452,8.400 259.005 C 8.400 259.558,8.562 260.323,8.761 260.705 C 8.960 261.087,9.340 262.210,9.607 263.200 C 9.873 264.190,10.272 265.388,10.493 265.862 C 10.714 266.336,10.773 266.921,10.624 267.162 C 10.475 267.403,10.554 267.600,10.800 267.600 C 11.046 267.600,11.136 267.780,11.000 268.000 C 10.864 268.220,10.943 268.400,11.176 268.400 C 11.409 268.400,11.562 268.535,11.515 268.700 C 11.468 268.865,11.656 269.407,11.932 269.905 C 12.207 270.402,12.398 271.032,12.354 271.305 C 12.286 271.733,13.556 274.861,14.831 277.407 C 15.054 277.851,15.265 278.603,15.301 279.079 C 15.337 279.555,15.471 279.880,15.598 279.801 C 15.726 279.722,16.066 280.230,16.355 280.929 C 16.643 281.628,17.330 283.190,17.882 284.400 C 18.433 285.610,18.878 286.690,18.871 286.800 C 18.863 286.910,19.159 287.346,19.529 287.769 C 19.898 288.192,19.992 288.416,19.737 288.268 C 19.388 288.065,19.387 288.236,19.731 288.965 C 19.982 289.497,20.325 289.846,20.493 289.742 C 20.662 289.638,20.800 289.923,20.800 290.376 C 20.800 290.829,20.980 291.200,21.200 291.200 C 21.420 291.200,21.600 291.470,21.600 291.800 C 21.600 292.130,21.780 292.400,22.000 292.400 C 22.220 292.400,22.400 292.760,22.400 293.200 C 22.400 293.640,22.580 294.000,22.800 294.000 C 23.020 294.000,23.200 294.360,23.200 294.800 C 23.200 295.240,23.346 295.600,23.525 295.600 C 23.704 295.600,24.098 296.230,24.400 297.000 C 24.702 297.770,25.096 298.400,25.275 298.400 C 25.454 298.400,25.600 298.670,25.600 299.000 C 25.600 299.330,25.780 299.600,26.000 299.600 C 26.220 299.600,26.400 299.960,26.400 300.400 C 26.400 300.840,26.580 301.200,26.800 301.200 C 27.020 301.200,27.200 301.397,27.200 301.638 C 27.200 301.879,27.577 302.606,28.038 303.253 C 28.498 303.900,28.915 304.700,28.964 305.032 C 29.012 305.363,29.310 305.942,29.626 306.318 C 30.755 307.660,31.600 309.184,31.606 309.886 C 31.611 310.493,31.670 310.510,32.000 310.000 C 32.314 309.515,32.389 309.572,32.394 310.300 C 32.397 310.795,32.580 311.200,32.800 311.200 C 33.020 311.200,33.200 311.378,33.200 311.595 C 33.200 311.946,33.569 312.472,35.000 314.162 C 35.468 314.714,36.151 315.745,37.111 317.350 C 37.490 317.983,38.213 318.928,38.718 319.450 C 39.223 319.973,39.535 320.400,39.411 320.400 C 39.287 320.400,39.819 321.015,40.593 321.767 C 41.367 322.518,42.000 323.258,42.000 323.411 C 42.000 323.564,42.765 324.606,43.700 325.726 C 44.635 326.847,45.130 327.623,44.800 327.453 C 44.470 327.282,44.695 327.567,45.300 328.086 C 45.905 328.605,46.400 329.134,46.400 329.261 C 46.400 329.388,47.310 330.416,48.422 331.546 C 49.534 332.676,50.360 333.600,50.258 333.600 C 50.155 333.600,50.865 334.417,51.836 335.415 C 52.806 336.414,53.600 337.434,53.600 337.682 C 53.600 337.930,53.699 338.034,53.821 337.913 C 54.053 337.680,62.371 345.694,62.161 345.948 C 62.005 346.136,63.058 347.200,63.400 347.200 C 63.895 347.200,64.759 348.307,64.481 348.586 C 64.326 348.740,64.470 348.807,64.800 348.733 C 65.132 348.660,65.351 348.836,65.290 349.130 C 65.230 349.421,65.367 349.544,65.595 349.403 C 65.823 349.262,66.835 349.971,67.843 350.979 C 68.851 351.987,70.023 352.998,70.449 353.226 C 70.874 353.454,71.100 353.839,70.949 354.082 C 70.785 354.348,70.860 354.410,71.138 354.238 C 71.392 354.081,71.605 354.098,71.611 354.276 C 71.617 354.454,72.337 355.041,73.211 355.580 C 74.085 356.120,74.800 356.795,74.800 357.080 C 74.800 357.366,74.935 357.560,75.100 357.511 C 75.518 357.387,77.619 358.786,78.700 359.907 C 79.195 360.421,79.600 360.735,79.600 360.605 C 79.600 360.475,79.994 360.736,80.475 361.184 C 80.957 361.633,81.508 362.000,81.699 362.000 C 81.891 362.000,81.919 362.208,81.762 362.462 C 81.591 362.739,81.652 362.815,81.914 362.653 C 82.155 362.504,82.948 362.896,83.676 363.524 C 84.404 364.151,85.315 364.780,85.700 364.920 C 86.085 365.060,86.400 365.361,86.400 365.587 C 86.400 365.814,86.593 366.000,86.828 366.000 C 87.335 366.000,90.941 368.409,91.133 368.877 C 91.207 369.055,91.657 369.203,92.133 369.206 C 92.840 369.211,92.889 369.284,92.400 369.600 C 91.908 369.918,91.950 369.989,92.638 369.994 C 93.099 369.997,93.802 370.360,94.200 370.800 C 94.598 371.240,95.256 371.600,95.662 371.600 C 96.068 371.600,96.400 371.780,96.400 372.000 C 96.400 372.220,96.657 372.400,96.971 372.400 C 97.286 372.400,97.858 372.715,98.243 373.100 C 98.628 373.485,99.046 373.804,99.171 373.808 C 99.735 373.829,104.400 376.230,104.400 376.499 C 104.400 376.665,104.760 376.800,105.200 376.800 C 105.640 376.800,106.001 376.935,106.003 377.100 C 106.007 377.459,107.944 378.400,108.680 378.400 C 108.966 378.400,109.200 378.546,109.200 378.725 C 109.200 378.904,109.830 379.298,110.600 379.600 C 111.370 379.902,112.000 380.296,112.000 380.475 C 112.000 380.654,112.270 380.800,112.600 380.800 C 112.930 380.800,113.200 380.980,113.200 381.200 C 113.200 381.420,113.639 381.600,114.176 381.600 C 114.713 381.600,115.264 381.780,115.400 382.000 C 115.536 382.220,115.997 382.400,116.424 382.400 C 116.851 382.400,117.200 382.580,117.200 382.800 C 117.200 383.020,117.560 383.200,118.000 383.200 C 118.440 383.200,118.800 383.380,118.800 383.600 C 118.800 383.820,119.115 384.006,119.500 384.013 C 119.885 384.020,120.542 384.284,120.959 384.600 C 121.376 384.916,121.871 385.080,122.059 384.964 C 122.247 384.848,122.400 384.904,122.400 385.089 C 122.400 385.274,123.229 385.670,124.242 385.969 C 125.255 386.268,126.776 386.848,127.622 387.256 C 128.469 387.665,129.440 388.000,129.781 388.000 C 130.121 388.000,130.400 388.191,130.400 388.424 C 130.400 388.657,130.548 388.756,130.729 388.644 C 130.909 388.532,131.560 388.702,132.174 389.020 C 132.789 389.339,133.537 389.600,133.837 389.600 C 134.138 389.600,135.724 390.050,137.362 390.600 C 139.001 391.150,140.725 391.600,141.194 391.600 C 141.663 391.600,141.936 391.780,141.800 392.000 C 141.653 392.238,142.121 392.400,142.953 392.400 C 143.723 392.400,144.464 392.580,144.600 392.800 C 144.736 393.020,145.387 393.200,146.047 393.200 C 146.707 393.200,147.147 393.362,147.025 393.560 C 146.903 393.758,147.567 394.022,148.501 394.147 C 152.652 394.703,153.600 394.906,153.600 395.242 C 153.600 395.439,154.309 395.600,155.176 395.600 C 156.043 395.600,156.864 395.780,157.000 396.000 C 157.136 396.220,158.057 396.400,159.047 396.400 C 160.145 396.400,160.751 396.556,160.600 396.800 C 160.446 397.049,161.204 397.200,162.600 397.200 C 163.836 397.200,164.754 397.351,164.640 397.535 C 164.526 397.719,165.551 397.910,166.917 397.958 C 168.282 398.006,169.571 398.216,169.780 398.423 C 169.989 398.630,171.258 398.800,172.600 398.800 C 174.012 398.800,175.250 399.010,175.537 399.297 C 176.378 400.138,224.800 399.991,224.800 399.147 C 224.800 398.956,225.970 398.800,227.400 398.800 C 228.867 398.800,230.000 398.626,230.000 398.400 C 230.000 398.178,231.059 398.000,232.376 398.000 C 233.683 398.000,234.864 397.820,235.000 397.600 C 235.136 397.380,236.327 397.200,237.647 397.200 C 239.145 397.200,239.954 397.050,239.800 396.800 C 239.651 396.559,240.188 396.400,241.153 396.400 C 242.033 396.400,242.864 396.220,243.000 396.000 C 243.136 395.780,243.942 395.600,244.790 395.600 C 245.639 395.600,246.393 395.430,246.467 395.221 C 246.540 395.013,247.445 394.800,248.478 394.748 C 249.511 394.696,250.265 394.506,250.155 394.326 C 249.982 394.047,251.938 393.790,252.930 393.963 C 253.111 393.994,253.145 393.835,253.006 393.610 C 252.867 393.384,252.538 393.200,252.276 393.200 C 252.013 393.200,231.099 372.500,205.800 347.200 C 180.501 321.900,160.071 301.204,160.401 301.210 C 160.730 301.215,162.080 301.592,163.400 302.048 C 166.496 303.117,173.549 303.244,176.684 302.288 C 182.546 300.501,184.632 298.860,196.976 286.335 C 218.091 264.908,243.768 239.212,285.432 197.814 C 325.263 158.236,329.573 153.749,331.157 150.200 C 331.452 149.540,331.852 148.687,332.047 148.305 C 332.241 147.923,332.400 147.194,332.400 146.685 C 332.400 146.176,332.591 145.569,332.824 145.336 C 333.283 144.877,333.111 136.220,332.587 133.404 L 332.290 131.809 336.845 136.004 C 339.350 138.312,341.672 140.470,342.005 140.800 C 342.338 141.130,343.688 142.390,345.006 143.600 C 346.324 144.810,349.472 147.708,352.001 150.040 C 354.530 152.372,359.210 156.677,362.400 159.607 C 365.590 162.537,369.280 165.939,370.600 167.167 C 371.920 168.395,375.160 171.378,377.800 173.796 C 380.440 176.214,383.680 179.198,385.000 180.427 C 395.919 190.597,398.205 192.697,399.104 193.381 L 400.131 194.162 399.858 185.013 C 399.708 179.982,399.423 175.668,399.224 175.428 C 399.024 175.188,398.809 173.702,398.744 172.126 C 398.680 170.549,398.486 169.347,398.314 169.453 C 398.141 169.560,398.000 168.557,398.000 167.224 C 398.000 165.875,397.823 164.800,397.600 164.800 C 397.380 164.800,397.200 163.900,397.200 162.800 C 397.200 161.700,397.020 160.800,396.800 160.800 C 396.580 160.800,396.400 160.001,396.400 159.024 C 396.400 158.047,396.220 157.136,396.000 157.000 C 395.780 156.864,395.597 155.818,395.594 154.676 C 395.589 153.188,395.478 152.770,395.200 153.200 C 394.912 153.645,394.811 153.406,394.806 152.274 C 394.803 151.434,394.624 150.419,394.410 150.018 C 394.195 149.617,393.978 148.741,393.927 148.072 C 393.876 147.403,393.691 146.944,393.517 147.051 C 393.343 147.159,393.200 146.707,393.200 146.047 C 393.200 145.387,393.020 144.736,392.800 144.600 C 392.580 144.464,392.400 143.823,392.400 143.176 C 392.400 142.529,392.240 142.000,392.044 142.000 C 391.700 142.000,391.205 139.835,391.177 138.212 C 391.170 137.779,390.980 137.311,390.755 137.172 C 390.531 137.033,390.299 136.668,390.241 136.360 C 390.182 136.052,389.892 134.990,389.595 134.000 C 389.298 133.010,389.043 132.080,389.028 131.933 C 389.013 131.787,388.877 131.544,388.728 131.394 C 388.578 131.244,388.563 130.840,388.696 130.495 C 388.854 130.082,388.777 129.967,388.468 130.158 C 388.175 130.339,388.000 130.171,388.000 129.708 C 388.000 129.302,387.640 128.263,387.200 127.400 C 386.760 126.537,386.400 125.680,386.400 125.496 C 386.400 125.312,386.056 124.449,385.635 123.579 C 385.215 122.709,385.080 122.114,385.335 122.257 C 385.631 122.423,385.618 122.321,385.300 121.979 C 385.025 121.682,384.800 121.105,384.800 120.696 C 384.800 120.287,384.620 120.064,384.400 120.200 C 384.180 120.336,384.000 120.077,384.000 119.624 C 384.000 119.171,383.820 118.800,383.600 118.800 C 383.380 118.800,383.200 118.440,383.200 118.000 C 383.200 117.560,383.020 117.200,382.800 117.200 C 382.580 117.200,382.400 116.750,382.400 116.200 C 382.400 115.650,382.265 115.199,382.100 115.197 C 381.741 115.193,380.800 113.256,380.800 112.520 C 380.800 112.234,380.620 112.000,380.400 112.000 C 380.180 112.000,380.000 111.640,380.000 111.200 C 380.000 110.760,379.854 110.400,379.675 110.400 C 379.496 110.400,379.102 109.770,378.800 109.000 C 378.498 108.230,378.104 107.600,377.925 107.600 C 377.746 107.600,377.600 107.240,377.600 106.800 C 377.600 106.360,377.420 106.000,377.200 106.000 C 376.980 106.000,376.800 105.640,376.800 105.200 C 376.800 104.760,376.620 104.400,376.400 104.400 C 376.180 104.400,376.000 104.040,376.000 103.600 C 376.000 103.160,375.820 102.800,375.600 102.800 C 375.380 102.800,375.200 102.440,375.200 102.000 C 375.200 101.560,375.041 101.200,374.847 101.200 C 374.545 101.200,374.038 100.128,373.854 99.100 C 373.824 98.935,373.305 98.180,372.700 97.421 C 372.095 96.663,371.600 95.820,371.600 95.547 C 371.600 95.275,371.253 94.680,370.830 94.226 C 370.406 93.772,370.001 93.143,369.930 92.828 C 369.858 92.513,369.305 91.721,368.700 91.068 C 368.095 90.416,367.600 89.721,367.600 89.524 C 367.600 89.327,367.253 88.794,366.828 88.338 C 366.403 87.882,365.777 86.945,365.437 86.255 C 365.097 85.565,364.807 85.180,364.792 85.400 C 364.778 85.620,364.459 85.229,364.083 84.532 C 363.707 83.835,362.905 82.711,362.300 82.036 C 361.695 81.360,361.200 80.625,361.200 80.403 C 361.200 80.182,360.990 80.000,360.733 80.000 C 360.477 80.000,360.376 79.891,360.509 79.758 C 360.642 79.625,360.312 79.109,359.775 78.612 C 359.239 78.115,358.800 77.504,358.800 77.254 C 358.800 77.004,358.620 76.800,358.400 76.800 C 358.180 76.800,358.000 76.530,358.000 76.200 C 358.000 75.870,357.790 75.600,357.533 75.600 C 357.277 75.600,357.171 75.496,357.297 75.369 C 357.424 75.242,356.978 74.612,356.305 73.969 C 355.632 73.326,355.204 72.800,355.354 72.800 C 355.504 72.800,355.036 72.179,354.313 71.420 C 350.924 67.858,350.400 67.235,350.400 66.768 C 350.400 66.492,350.281 66.386,350.136 66.531 C 349.831 66.836,348.553 65.165,348.713 64.670 C 348.772 64.489,348.635 64.455,348.410 64.594 C 348.184 64.733,348.000 64.537,348.000 64.157 C 348.000 63.777,347.889 63.578,347.752 63.714 C 347.431 64.036,346.400 63.005,346.400 62.362 C 346.400 62.090,346.289 61.978,346.152 62.114 C 345.849 62.418,344.800 61.421,344.800 60.829 C 344.800 60.593,344.627 60.400,344.416 60.400 C 344.204 60.400,341.449 57.835,338.292 54.700 C 335.136 51.565,332.127 48.730,331.607 48.400 C 331.086 48.070,330.031 47.133,329.263 46.318 C 328.494 45.503,327.741 44.913,327.587 45.008 C 327.434 45.102,326.588 44.509,325.708 43.690 C 324.827 42.870,323.595 41.840,322.970 41.400 C 322.346 40.960,321.512 40.285,321.117 39.900 C 320.723 39.515,320.397 39.335,320.394 39.500 C 320.391 39.665,320.256 39.620,320.094 39.400 C 319.595 38.721,314.800 35.129,314.800 35.435 C 314.800 35.593,314.464 35.335,314.053 34.861 C 313.642 34.388,313.102 34.000,312.853 34.000 C 312.604 34.000,312.400 33.864,312.400 33.698 C 312.400 33.531,311.859 33.156,311.198 32.863 C 310.479 32.545,310.103 32.144,310.262 31.865 C 310.408 31.609,310.387 31.528,310.213 31.684 C 309.804 32.053,307.690 30.979,306.337 29.715 C 305.753 29.169,305.168 28.740,305.037 28.761 C 304.280 28.885,304.000 28.734,304.000 28.200 C 304.000 27.870,303.865 27.630,303.700 27.666 C 303.103 27.796,301.200 27.105,301.200 26.757 C 301.200 26.560,300.919 26.400,300.576 26.400 C 300.233 26.400,300.064 26.220,300.200 26.000 C 300.336 25.780,300.077 25.600,299.624 25.600 C 299.171 25.600,298.800 25.420,298.800 25.200 C 298.800 24.980,298.440 24.800,298.000 24.800 C 297.560 24.800,297.200 24.620,297.200 24.400 C 297.200 24.180,296.840 24.000,296.400 24.000 C 295.960 24.000,295.600 23.820,295.600 23.600 C 295.600 23.380,295.229 23.200,294.776 23.200 C 294.323 23.200,294.064 23.020,294.200 22.800 C 294.336 22.580,294.066 22.400,293.600 22.400 C 293.134 22.400,292.864 22.220,293.000 22.000 C 293.136 21.780,292.877 21.600,292.424 21.600 C 291.971 21.600,291.600 21.420,291.600 21.200 C 291.600 20.980,291.150 20.800,290.600 20.800 C 290.050 20.800,289.600 20.634,289.600 20.431 C 289.600 20.228,288.970 19.854,288.200 19.600 C 287.430 19.346,286.800 18.961,286.800 18.745 C 286.800 18.529,286.640 18.451,286.445 18.572 C 286.250 18.693,285.868 18.523,285.596 18.196 C 285.324 17.868,284.798 17.600,284.426 17.600 C 284.054 17.600,283.005 17.240,282.094 16.800 C 281.184 16.360,280.239 16.000,279.996 16.000 C 279.752 16.000,279.682 15.775,279.841 15.500 C 279.999 15.225,279.986 15.129,279.812 15.286 C 279.637 15.443,279.113 15.362,278.647 15.105 C 278.181 14.849,277.440 14.580,277.000 14.508 C 276.560 14.436,276.140 14.202,276.067 13.988 C 275.993 13.775,275.646 13.600,275.295 13.600 C 274.363 13.600,272.000 12.691,272.000 12.332 C 272.000 12.163,271.744 12.123,271.431 12.243 C 271.118 12.363,270.443 12.230,269.931 11.946 C 269.419 11.662,268.865 11.468,268.700 11.515 C 268.535 11.562,268.400 11.390,268.400 11.133 C 268.400 10.877,268.295 10.771,268.167 10.899 C 268.039 11.027,267.325 10.877,266.580 10.566 C 265.835 10.255,264.770 10.000,264.213 10.000 C 263.656 10.000,263.200 9.820,263.200 9.600 C 263.200 9.380,262.660 9.200,262.000 9.200 C 261.340 9.200,260.800 9.020,260.800 8.800 C 260.800 8.580,260.249 8.400,259.576 8.400 C 258.863 8.400,258.456 8.233,258.600 8.000 C 258.749 7.759,258.215 7.600,257.257 7.600 C 256.382 7.600,255.607 7.426,255.533 7.213 C 255.460 7.000,254.801 6.780,254.070 6.725 C 253.338 6.670,252.652 6.485,252.546 6.313 C 252.440 6.141,251.813 6.000,251.153 6.000 C 250.493 6.000,250.044 5.853,250.155 5.674 C 250.265 5.494,249.511 5.304,248.478 5.252 C 247.445 5.200,246.540 4.987,246.467 4.779 C 246.393 4.570,245.639 4.400,244.790 4.400 C 243.942 4.400,243.136 4.220,243.000 4.000 C 242.864 3.780,242.033 3.600,241.153 3.600 C 240.273 3.600,239.644 3.453,239.755 3.274 C 239.865 3.094,239.201 2.906,238.278 2.857 C 236.418 2.756,235.691 2.636,234.800 2.283 C 234.196 2.043,231.920 1.760,227.300 1.352 C 225.925 1.231,224.800 0.969,224.800 0.770 C 224.800 0.572,224.395 0.401,223.900 0.392 C 216.910 0.258,181.776 0.157,179.400 0.264 M298.447 99.755 C 303.669 101.381,305.765 103.060,318.042 115.458 C 330.848 128.389,332.744 131.546,332.784 140.000 C 332.802 143.914,331.440 148.784,329.363 152.233 C 327.857 154.734,186.052 296.715,183.000 298.778 C 176.463 303.195,167.200 303.554,159.200 299.700 C 157.001 298.641,132.463 274.409,85.775 227.189 C 68.397 209.613,67.170 207.729,67.214 198.694 C 67.257 189.910,69.090 186.999,83.662 172.570 C 97.232 159.134,98.807 158.140,107.200 157.724 C 118.199 157.179,117.752 156.860,146.149 185.472 C 159.101 198.523,169.976 209.200,170.315 209.200 C 170.655 209.200,189.938 190.223,213.166 167.028 C 283.351 96.945,278.027 101.966,284.400 99.852 C 287.905 98.690,294.873 98.642,298.447 99.755 M291.600 378.000 C 291.600 378.220,291.240 378.400,290.800 378.400 C 290.360 378.400,290.000 378.574,290.000 378.787 C 290.000 379.228,291.022 378.923,292.189 378.134 C 292.878 377.667,292.891 377.600,292.289 377.600 C 291.910 377.600,291.600 377.780,291.600 378.000 M285.467 381.369 C 285.326 381.737,284.922 381.857,284.324 381.710 C 283.816 381.584,283.540 381.634,283.712 381.819 C 284.281 382.435,285.139 382.331,285.836 381.561 C 286.214 381.142,286.335 380.800,286.105 380.800 C 285.874 380.800,285.587 381.056,285.467 381.369 M280.200 383.600 C 280.064 383.820,280.223 384.000,280.553 384.000 C 280.883 384.000,281.264 383.820,281.400 383.600 C 281.536 383.380,281.377 383.200,281.047 383.200 C 280.717 383.200,280.336 383.380,280.200 383.600 M262.000 390.400 C 262.000 390.620,262.371 390.800,262.824 390.800 C 263.277 390.800,263.536 390.620,263.400 390.400 C 263.264 390.180,262.893 390.000,262.576 390.000 C 262.259 390.000,262.000 390.180,262.000 390.400 M256.600 392.000 C 256.736 392.220,257.107 392.400,257.424 392.400 C 257.741 392.400,258.000 392.220,258.000 392.000 C 258.000 391.780,257.629 391.600,257.176 391.600 C 256.723 391.600,256.464 391.780,256.600 392.000 M254.000 392.800 C 254.000 393.020,254.259 393.200,254.576 393.200 C 254.893 393.200,255.264 393.020,255.400 392.800 C 255.536 392.580,255.277 392.400,254.824 392.400 C 254.371 392.400,254.000 392.580,254.000 392.800 " stroke="none" fill="#2bbb7c" fill-rule="evenodd"></path><path id="path2" d="M269.776 11.813 C 270.204 12.136,270.834 12.399,271.176 12.398 C 271.519 12.396,271.284 12.126,270.654 11.798 C 269.204 11.041,268.766 11.049,269.776 11.813 M306.922 30.163 C 307.540 30.733,308.245 31.200,308.489 31.200 C 309.006 31.200,309.023 31.215,307.200 30.034 L 305.800 29.127 306.922 30.163 M50.300 65.784 C 49.217 67.090,48.726 68.176,49.700 67.111 C 51.653 64.976,52.094 64.404,51.770 64.429 C 51.566 64.445,50.905 65.054,50.300 65.784 M348.831 65.501 C 349.364 66.157,349.849 66.654,349.909 66.605 C 350.196 66.369,349.494 65.326,348.723 64.845 C 347.921 64.344,347.929 64.389,348.831 65.501 M28.711 94.826 C 28.340 95.472,28.180 96.000,28.354 96.000 C 28.683 96.000,29.724 93.991,29.507 93.774 C 29.440 93.707,29.082 94.180,28.711 94.826 M332.587 133.404 C 333.111 136.220,333.283 144.877,332.824 145.336 C 332.591 145.569,332.400 146.176,332.400 146.685 C 332.400 147.194,332.241 147.923,332.047 148.305 C 331.852 148.687,331.452 149.540,331.157 150.200 C 329.573 153.749,325.263 158.236,285.432 197.814 C 243.768 239.212,218.091 264.908,196.976 286.335 C 184.632 298.860,182.546 300.501,176.684 302.288 C 173.549 303.244,166.496 303.117,163.400 302.048 C 162.080 301.592,160.730 301.215,160.401 301.210 C 160.071 301.204,180.501 321.900,205.800 347.200 C 231.099 372.500,252.035 393.200,252.323 393.200 C 252.611 393.200,252.725 393.398,252.575 393.640 C 252.384 393.949,252.556 393.945,253.152 393.626 C 253.618 393.376,254.000 392.998,254.000 392.786 C 254.000 392.574,254.371 392.400,254.824 392.400 C 255.277 392.400,255.536 392.580,255.400 392.800 C 255.037 393.388,255.570 393.287,256.210 392.648 C 256.513 392.344,256.650 391.984,256.514 391.848 C 256.378 391.711,256.657 391.600,257.133 391.600 C 257.610 391.600,258.000 391.782,258.000 392.003 C 258.000 392.247,258.307 392.215,258.774 391.923 C 259.200 391.657,259.459 391.296,259.351 391.120 C 259.242 390.944,259.418 390.800,259.743 390.800 C 260.068 390.800,260.393 390.968,260.467 391.173 C 260.546 391.393,261.172 391.410,262.000 391.214 C 262.770 391.031,263.085 390.863,262.700 390.841 C 261.214 390.754,262.090 390.100,263.700 390.094 C 265.850 390.086,268.000 389.616,268.000 389.155 C 268.000 388.960,268.450 388.800,269.000 388.800 C 269.550 388.800,270.000 388.620,270.000 388.400 C 270.000 388.180,270.405 387.987,270.900 387.972 C 271.765 387.945,271.769 387.929,271.000 387.566 C 270.318 387.244,270.363 387.211,271.310 387.341 C 272.032 387.440,272.554 387.267,272.803 386.846 C 273.140 386.276,273.237 386.271,273.623 386.800 C 273.953 387.252,274.111 387.277,274.264 386.900 C 274.375 386.625,274.857 386.387,275.333 386.372 C 276.173 386.345,276.175 386.333,275.400 386.000 C 274.608 385.660,274.608 385.656,275.420 385.628 C 275.871 385.613,276.463 385.377,276.737 385.103 C 277.132 384.708,277.310 384.728,277.611 385.203 C 277.862 385.602,277.990 385.634,277.994 385.300 C 277.997 385.025,278.429 384.800,278.953 384.800 C 279.570 384.800,279.981 384.518,280.116 384.000 C 280.257 383.459,280.662 383.200,281.363 383.200 C 281.933 383.200,282.400 383.020,282.400 382.800 C 282.400 382.580,282.771 382.400,283.224 382.400 C 283.677 382.400,283.936 382.220,283.800 382.000 C 283.664 381.780,283.844 381.600,284.200 381.600 C 284.587 381.600,284.745 381.801,284.593 382.100 C 284.453 382.375,284.697 382.195,285.134 381.700 C 285.959 380.765,286.655 380.463,286.168 381.252 C 285.992 381.537,286.094 381.611,286.444 381.452 C 286.750 381.314,287.315 381.089,287.700 380.954 C 288.085 380.818,288.400 380.548,288.400 380.353 C 288.400 380.159,288.760 380.000,289.200 380.000 C 289.733 380.000,290.000 379.733,290.000 379.200 C 290.000 378.667,290.267 378.400,290.800 378.400 C 291.240 378.400,291.600 378.220,291.600 378.000 C 291.600 377.780,291.915 377.603,292.300 377.606 C 292.898 377.611,292.913 377.669,292.400 378.000 C 291.887 378.331,291.902 378.389,292.500 378.394 C 292.935 378.398,293.200 378.098,293.200 377.600 C 293.200 376.716,293.825 376.513,294.121 377.300 C 294.232 377.595,294.481 377.391,294.729 376.800 C 294.960 376.250,295.161 376.008,295.175 376.262 C 295.194 376.611,295.439 376.612,296.170 376.267 C 296.818 375.961,296.984 375.711,296.670 375.511 C 296.377 375.325,296.538 375.191,297.100 375.156 C 298.347 375.078,298.435 375.054,299.900 374.392 C 300.615 374.069,301.200 373.702,301.200 373.577 C 301.200 373.452,301.831 373.102,302.602 372.799 C 303.556 372.425,303.843 372.148,303.502 371.931 C 303.174 371.722,303.346 371.606,304.000 371.593 C 305.252 371.570,306.690 370.580,305.921 370.272 C 305.635 370.157,305.850 370.043,306.400 370.019 C 307.669 369.963,309.078 368.975,308.321 368.672 C 308.035 368.557,308.345 368.449,309.012 368.432 C 309.737 368.413,310.455 368.079,310.800 367.600 C 311.117 367.160,311.620 366.800,311.917 366.800 C 312.754 366.800,313.714 365.713,313.096 365.464 C 312.823 365.353,313.108 365.249,313.729 365.232 C 315.023 365.195,316.316 364.195,315.496 363.864 C 315.206 363.746,315.293 363.650,315.705 363.632 C 316.587 363.592,317.988 362.818,318.843 361.900 C 319.201 361.515,319.698 361.200,319.947 361.200 C 320.196 361.200,320.400 360.840,320.400 360.400 C 320.400 359.960,320.580 359.600,320.800 359.600 C 321.020 359.600,321.200 359.808,321.200 360.061 C 321.200 360.315,321.515 360.167,321.900 359.733 C 322.285 359.298,323.175 358.608,323.878 358.198 C 324.581 357.788,325.066 357.306,324.955 357.127 C 324.844 356.947,325.078 356.797,325.476 356.794 C 326.090 356.789,326.109 356.729,325.600 356.400 C 325.094 356.073,325.115 356.011,325.738 356.006 C 326.638 355.999,328.522 354.708,330.400 352.813 C 331.170 352.036,332.295 351.145,332.900 350.832 C 333.505 350.520,334.000 350.012,334.000 349.704 C 334.000 349.395,334.270 348.873,334.600 348.543 C 334.933 348.210,335.200 348.137,335.200 348.379 C 335.200 348.619,336.370 347.645,337.800 346.215 C 339.230 344.785,340.400 343.421,340.400 343.184 C 340.400 342.947,340.567 342.856,340.771 342.982 C 340.975 343.108,341.257 342.849,341.398 342.406 C 341.539 341.963,341.813 341.600,342.007 341.600 C 342.554 341.600,347.984 336.117,347.709 335.843 C 347.576 335.709,347.698 335.600,347.981 335.600 C 348.497 335.600,350.782 333.253,350.794 332.711 C 350.797 332.551,351.610 331.611,352.600 330.621 C 353.590 329.631,354.400 328.728,354.400 328.615 C 354.400 328.407,355.379 327.154,356.300 326.184 C 356.575 325.894,356.800 325.464,356.800 325.229 C 356.800 324.993,357.008 324.845,357.263 324.900 C 357.518 324.955,358.013 324.464,358.363 323.809 C 358.713 323.155,359.495 322.137,360.100 321.549 C 360.705 320.960,361.200 320.280,361.200 320.036 C 361.200 319.792,361.740 319.028,362.400 318.337 C 363.060 317.646,363.600 316.838,363.600 316.541 C 363.600 316.243,363.750 316.000,363.932 316.000 C 364.115 316.000,364.519 315.505,364.830 314.900 C 365.140 314.295,365.738 313.485,366.158 313.100 C 366.622 312.675,366.724 312.400,366.419 312.400 C 366.142 312.400,366.474 311.878,367.158 311.240 C 367.841 310.601,368.400 309.874,368.400 309.623 C 368.400 309.372,368.731 308.811,369.136 308.377 C 369.541 307.942,370.126 307.095,370.436 306.493 C 370.746 305.892,371.315 305.051,371.700 304.625 C 372.085 304.198,372.400 303.613,372.400 303.325 C 372.400 303.036,372.580 302.800,372.800 302.800 C 373.020 302.800,373.200 302.522,373.200 302.183 C 373.200 301.844,373.551 301.190,373.980 300.729 C 374.409 300.269,374.882 299.331,375.030 298.646 C 375.179 297.961,375.413 297.310,375.550 297.200 C 375.938 296.890,377.224 294.680,377.471 293.900 C 377.593 293.515,377.852 293.200,378.047 293.200 C 378.241 293.200,378.403 292.615,378.406 291.900 C 378.411 290.914,378.506 290.745,378.800 291.200 C 379.114 291.685,379.189 291.628,379.194 290.900 C 379.197 290.405,379.380 290.000,379.600 290.000 C 379.820 290.000,380.000 289.730,380.000 289.400 C 380.000 289.070,380.180 288.800,380.400 288.800 C 380.620 288.800,380.800 288.528,380.800 288.195 C 380.800 287.862,380.957 287.277,381.150 286.895 C 382.648 283.920,383.200 282.647,383.200 282.162 C 383.200 281.853,383.380 281.600,383.600 281.600 C 383.820 281.600,384.000 281.240,384.000 280.800 C 384.000 280.360,384.147 280.000,384.328 280.000 C 384.508 280.000,384.900 279.100,385.200 278.000 C 385.500 276.900,385.892 276.000,386.072 276.000 C 386.253 276.000,386.400 275.728,386.400 275.395 C 386.400 275.062,386.559 274.477,386.753 274.095 C 387.072 273.469,387.380 272.755,388.438 270.200 C 389.416 267.838,391.600 260.650,391.600 259.794 C 391.600 259.247,391.780 258.800,392.000 258.800 C 392.220 258.800,392.400 258.170,392.400 257.400 C 392.400 256.630,392.580 256.000,392.800 256.000 C 393.020 256.000,393.200 255.370,393.200 254.600 C 393.200 253.830,393.380 253.200,393.600 253.200 C 393.820 253.200,394.000 252.570,394.000 251.800 C 394.000 251.030,394.180 250.400,394.400 250.400 C 394.620 250.400,394.800 249.680,394.800 248.800 C 394.800 247.920,394.980 247.200,395.200 247.200 C 395.420 247.200,395.600 246.491,395.600 245.624 C 395.600 244.757,395.780 243.936,396.000 243.800 C 396.220 243.664,396.400 242.764,396.400 241.800 C 396.400 240.836,396.580 239.936,396.800 239.800 C 397.020 239.664,397.200 238.764,397.200 237.800 C 397.200 236.836,397.380 235.936,397.600 235.800 C 397.820 235.664,398.000 234.483,398.000 233.176 C 398.000 231.859,398.178 230.800,398.400 230.800 C 398.628 230.800,398.800 229.611,398.800 228.033 C 398.800 226.341,398.975 225.208,399.249 225.117 C 399.567 225.011,399.760 220.479,399.908 209.713 L 400.116 194.460 396.758 191.310 C 394.911 189.578,392.050 186.923,390.400 185.412 C 388.750 183.901,386.320 181.658,385.000 180.428 C 383.680 179.198,380.440 176.214,377.800 173.796 C 375.160 171.378,371.920 168.395,370.600 167.167 C 369.280 165.939,365.590 162.537,362.400 159.607 C 359.210 156.677,354.530 152.372,352.001 150.040 C 349.472 147.708,346.324 144.810,345.006 143.600 C 343.688 142.390,342.338 141.130,342.005 140.800 C 341.672 140.470,339.350 138.312,336.845 136.004 L 332.290 131.809 332.587 133.404 M11.213 269.254 C 11.206 269.394,11.469 270.024,11.798 270.654 C 12.126 271.284,12.396 271.519,12.398 271.176 C 12.400 270.590,11.240 268.708,11.213 269.254 M27.289 302.600 C 27.752 303.845,28.581 305.200,28.882 305.200 C 29.072 305.200,29.055 304.885,28.843 304.500 C 28.355 303.612,27.091 302.067,27.289 302.600 M50.400 334.167 C 50.400 334.588,51.605 335.728,51.821 335.512 C 51.922 335.411,51.644 335.002,51.202 334.602 C 50.761 334.203,50.400 334.007,50.400 334.167 M64.400 348.099 C 64.400 348.174,65.120 348.917,66.000 349.751 C 66.880 350.585,67.600 351.102,67.600 350.901 C 67.600 350.699,66.880 349.955,66.000 349.248 C 65.120 348.541,64.400 348.024,64.400 348.099 M99.600 374.140 C 99.930 374.456,100.650 374.846,101.200 375.007 C 102.467 375.378,102.188 375.111,100.400 374.244 C 99.384 373.752,99.165 373.723,99.600 374.140 M134.000 389.736 C 134.000 389.987,139.291 391.642,139.482 391.451 C 139.612 391.321,137.905 390.712,134.900 389.815 C 134.405 389.667,134.000 389.631,134.000 389.736 " stroke="none" fill="#04a46c" fill-rule="evenodd"></path></g></svg>